<svg version="1.1" xmlns="http://www.w3.org/2000/svg" xmlns:xlink="http://www.w3.org/1999/xlink" x="0px" y="0px"
	     viewBox="0 0 122.934 26.013" style="enable-background:new 0 0 122.934 26.013;" xml:space="preserve">
    <style type="text/css">
	    .st0{fill:#1B75BC;}
	    .st1{fill:#808285;}
    </style>
    <g>
	    <g>
		    <path class="st0" d="M33.603,10.042c0,0,0.285-0.117,0.83-0.117c0.545,0,0.83,0.117,0.83,0.117v9.1c0,0-0.272,0.117-0.817,0.117
			    c-0.609,0-0.843-0.117-0.843-0.117v-3.954H30.18v3.954c0,0-0.298,0.117-0.83,0.117c-0.596,0-0.83-0.117-0.83-0.117v-9.1
			    c0,0,0.272-0.117,0.817-0.117c0.557,0,0.843,0.117,0.843,0.117v3.721h3.422V10.042z"/>
		    <path class="st0" d="M39.671,12.311c1.892,0,2.593,0.778,2.593,2.411v4.433c0,0-0.182,0.104-0.635,0.104
			    c-0.402,0-0.661-0.104-0.661-0.104l-0.246-0.7c-0.298,0.609-0.959,0.933-1.893,0.933c-1.231,0-2.009-0.726-2.009-2.243
			    c0-1.465,0.92-2.061,2.528-2.061c0.454,0,0.907,0.026,1.283,0.065v-0.285c0-0.648-0.234-1.18-1.167-1.18
			    c-0.855,0-1.659,0.311-1.659,0.311s-0.207-0.13-0.363-0.48c-0.155-0.35-0.104-0.687-0.104-0.687S38.297,12.311,39.671,12.311z
			     M39.554,16.174c-0.661,0-1.05,0.272-1.05,0.972c0,0.739,0.35,0.998,0.933,0.998c0.907,0,1.193-0.843,1.193-1.53v-0.389
			    C40.306,16.2,39.93,16.174,39.554,16.174z"/>
		    <path class="st0" d="M49.757,12.311c0.129,0.324,0.129,0.907,0,1.244l-0.998-0.13c0.194,0.35,0.285,0.778,0.285,1.27
			    c0,1.478-0.881,2.385-2.631,2.385c-0.169,0-0.324,0-0.467-0.013c-0.117,0.181-0.181,0.376-0.143,0.571
			    c0.207,1.063,3.941-0.13,3.941,2.58c0,1.348-1.323,2.281-3.422,2.281c-2.009,0-2.865-0.726-2.865-1.763
			    c0-0.959,0.803-1.517,1.166-1.724c-0.169-0.182-0.272-0.428-0.272-0.752c0-0.57,0.311-1.089,0.635-1.452
			    c-0.804-0.376-1.206-1.115-1.206-2.113c0-1.478,0.895-2.385,2.632-2.385c0.596,0,1.089,0.104,1.478,0.298L49.757,12.311z
			     M45.454,19.441c-0.181,0.181-0.428,0.518-0.428,0.959c0,0.518,0.389,0.959,1.348,0.959c1.245,0,1.828-0.389,1.828-0.959
			    C48.202,19.583,46.595,19.752,45.454,19.441z M46.413,13.439c-0.648,0-1.089,0.376-1.089,1.257c0,0.881,0.441,1.244,1.089,1.244
			    c0.648,0,1.076-0.363,1.076-1.244C47.489,13.815,47.061,13.439,46.413,13.439z"/>
		    <path class="st0" d="M53.35,12.311c1.387,0,1.905,0.376,1.905,0.376c0,0.415-0.129,0.882-0.415,1.154c0,0-0.609-0.207-1.322-0.207
			    c-0.752,0-1.115,0.259-1.115,0.726c0,0.557,0.83,0.648,1.646,0.933c0.778,0.272,1.543,0.726,1.543,1.944
			    c0,1.374-0.843,2.152-2.541,2.152c-1.413,0-2.242-0.493-2.242-0.493c0-0.48,0.143-0.92,0.441-1.206c0,0,0.843,0.311,1.724,0.311
			    c0.7,0,1.011-0.246,1.011-0.726c0-0.557-0.635-0.7-1.335-0.907c-0.855-0.259-1.802-0.622-1.802-1.957
			    C50.848,13.154,51.651,12.311,53.35,12.311z"/>
		    <path class="st0" d="M59.132,16.731c0,1.102,0.402,1.348,1.231,1.348c0.207,0,0.454-0.039,0.454-0.039s0.117,0.285,0.117,0.648
			    c0,0.35-0.091,0.583-0.091,0.583c-0.311,0.091-0.661,0.117-0.959,0.117c-1.659,0-2.385-0.869-2.385-2.58v-3.163h-0.985
			    c0,0-0.091-0.233-0.091-0.596c0-0.402,0.091-0.609,0.091-0.609h0.985v-1.115c0.428-0.259,1.037-0.376,1.633-0.324v1.439h1.529
			    c0,0,0.091,0.22,0.091,0.596c0,0.35-0.091,0.609-0.091,0.609h-1.529V16.731z"/>
		    <path class="st0" d="M64.888,12.311c1.841,0,2.981,0.972,2.981,3.539s-1.154,3.539-2.981,3.539c-1.828,0-2.982-0.972-2.982-3.539
			    S63.06,12.311,64.888,12.311z M64.888,13.555c-0.791,0-1.309,0.454-1.309,2.295c0,1.841,0.518,2.295,1.309,2.295
			    c0.791,0,1.296-0.454,1.296-2.295C66.185,14.009,65.679,13.555,64.888,13.555z"/>
		    <path class="st0" d="M72.032,9.537c0.959,0,1.543,0.311,1.543,0.311c-0.026,0.454-0.156,0.804-0.428,1.128
			    c0,0-0.389-0.155-1.011-0.155c-0.519,0-0.739,0.233-0.739,0.778v0.843h1.426c0.052,0.208,0.078,0.415,0.078,0.622
			    c0,0.194-0.026,0.389-0.078,0.583h-1.426v5.509c0,0-0.285,0.104-0.817,0.104c-0.57,0-0.817-0.104-0.817-0.104v-5.509h-0.83
			    c-0.039-0.207-0.065-0.415-0.065-0.622c0-0.208,0.013-0.402,0.065-0.583h0.83v-0.778C69.763,10.405,70.347,9.537,72.032,9.537z"/>
		    <path class="st0" d="M76.505,12.311c1.892,0,2.593,0.778,2.593,2.411v4.433c0,0-0.182,0.104-0.635,0.104
			    c-0.402,0-0.661-0.104-0.661-0.104l-0.246-0.7c-0.298,0.609-0.959,0.933-1.893,0.933c-1.231,0-2.009-0.726-2.009-2.243
			    c0-1.465,0.92-2.061,2.528-2.061c0.454,0,0.907,0.026,1.283,0.065v-0.285c0-0.648-0.234-1.18-1.167-1.18
			    c-0.855,0-1.659,0.311-1.659,0.311s-0.207-0.13-0.363-0.48c-0.155-0.35-0.104-0.687-0.104-0.687S75.131,12.311,76.505,12.311z
			     M76.388,16.174c-0.661,0-1.05,0.272-1.05,0.972c0,0.739,0.35,0.998,0.933,0.998c0.907,0,1.193-0.843,1.193-1.53v-0.389
			    C77.14,16.2,76.764,16.174,76.388,16.174z"/>
		    <path class="st0" d="M84.816,9.308c-0.296,0.103-0.959-0.092-1.055-0.372l1.055-1.681c0.519-0.065,1.18,0.22,1.413,0.583
			    L84.816,9.308z M83.986,10.042c0,0,0.272-0.117,0.817-0.117c0.557,0,0.843,0.117,0.843,0.117v9.1c0,0-0.298,0.117-0.83,0.117
			    c-0.596,0-0.83-0.117-0.83-0.117V10.042z"/>
		    <path class="st0" d="M89.834,12.311c1.387,0,1.905,0.376,1.905,0.376c0,0.415-0.129,0.882-0.415,1.154
			    c0,0-0.609-0.207-1.322-0.207c-0.752,0-1.115,0.259-1.115,0.726c0,0.557,0.83,0.648,1.646,0.933
			    c0.778,0.272,1.543,0.726,1.543,1.944c0,1.374-0.843,2.152-2.541,2.152c-1.413,0-2.243-0.493-2.243-0.493
			    c0-0.48,0.143-0.92,0.441-1.206c0,0,0.843,0.311,1.724,0.311c0.7,0,1.011-0.246,1.011-0.726c0-0.557-0.635-0.7-1.335-0.907
			    c-0.855-0.259-1.802-0.622-1.802-1.957C87.332,13.154,88.135,12.311,89.834,12.311z"/>
		    <path class="st0" d="M95.175,19.156c0,0-0.285,0.104-0.817,0.104c-0.57,0-0.817-0.104-0.817-0.104V9.641
			    c0,0,0.246-0.104,0.817-0.104c0.532,0,0.817,0.104,0.817,0.104V19.156z"/>
		    <path class="st0" d="M99.493,12.311c1.893,0,2.593,0.778,2.593,2.411v4.433c0,0-0.181,0.104-0.635,0.104
			    c-0.402,0-0.661-0.104-0.661-0.104l-0.246-0.7c-0.298,0.609-0.959,0.933-1.892,0.933c-1.231,0-2.009-0.726-2.009-2.243
			    c0-1.465,0.92-2.061,2.528-2.061c0.454,0,0.907,0.026,1.283,0.065v-0.285c0-0.648-0.234-1.18-1.167-1.18
			    c-0.855,0-1.659,0.311-1.659,0.311s-0.207-0.13-0.363-0.48c-0.156-0.35-0.104-0.687-0.104-0.687S98.118,12.311,99.493,12.311z
			     M99.376,16.174c-0.661,0-1.05,0.272-1.05,0.972c0,0.739,0.35,0.998,0.934,0.998c0.907,0,1.193-0.843,1.193-1.53v-0.389
			    C100.128,16.2,99.752,16.174,99.376,16.174z"/>
		    <path class="st0" d="M109.307,19.156c0,0-0.285,0.104-0.816,0.104c-0.571,0-0.817-0.104-0.817-0.104v-4.589
			    c0-0.557-0.298-0.933-1.037-0.933c-0.428,0-0.83,0.182-1.141,0.48v5.043c0,0-0.285,0.104-0.817,0.104
			    c-0.57,0-0.817-0.104-0.817-0.104v-6.611c0,0,0.246-0.104,0.817-0.104c0.532,0,0.817,0.104,0.817,0.104v0.389
			    c0.454-0.415,1.063-0.622,1.776-0.622c1.335,0,2.035,0.804,2.035,1.97V19.156z"/>
		    <path class="st0" d="M115.816,9.537c0.544,0,0.803,0.104,0.803,0.104v9.515c0,0-0.285,0.104-0.687,0.104
			    c-0.415,0-0.752-0.104-0.752-0.104l-0.104-0.557c-0.363,0.506-0.933,0.791-1.841,0.791c-1.452,0-2.398-0.895-2.398-3.539
			    c0-2.644,0.946-3.539,2.398-3.539c0.83,0,1.374,0.233,1.75,0.674V9.641C114.986,9.641,115.271,9.537,115.816,9.537z
			     M113.819,13.633c-0.817,0-1.296,0.389-1.296,2.217c0,1.828,0.48,2.217,1.296,2.217c0.726,0,1.167-0.583,1.167-1.4v-1.685
			    C114.96,14.191,114.519,13.633,113.819,13.633z"/>
		    <path class="st0" d="M120.691,12.311c1.387,0,1.905,0.376,1.905,0.376c0,0.415-0.129,0.882-0.415,1.154
			    c0,0-0.609-0.207-1.322-0.207c-0.752,0-1.115,0.259-1.115,0.726c0,0.557,0.83,0.648,1.646,0.933
			    c0.778,0.272,1.543,0.726,1.543,1.944c0,1.374-0.843,2.152-2.541,2.152c-1.413,0-2.243-0.493-2.243-0.493
			    c0-0.48,0.143-0.92,0.441-1.206c0,0,0.843,0.311,1.724,0.311c0.7,0,1.011-0.246,1.011-0.726c0-0.557-0.635-0.7-1.335-0.907
			    c-0.855-0.259-1.802-0.622-1.802-1.957C118.189,13.154,118.993,12.311,120.691,12.311z"/>
	    </g>
	    <g>
		    <path class="st1" d="M3.431,4.327L3.431,4.327C2.484,4.005,0.948,4.005,0,4.327l0,0h0v8.077h3.431L3.431,4.327L3.431,4.327z"/>
		    <g>
			    <path class="st0" d="M11.092,0.242L11.092,0.242L11.092,0.242c-0.948-0.322-2.484-0.322-3.431,0h0h0v12.162h3.431V0.242z"/>
			    <path class="st0" d="M18.752,14.895c0.121-0.355,0.121-0.931,0-1.286v0h0v0v0H0v8.077h0c0.948,0.322,2.484,0.322,3.431,0h0
				    v-6.791H7.66v10.876h0c0.947,0.322,2.484,0.322,3.431,0h0V14.895L18.752,14.895L18.752,14.895z"/>
		    </g>
	    </g>
    </g>
    <g>
    </g>
    <g>
    </g>
    <g>
    </g>
    <g>
    </g>
    <g>
    </g>
    <g>
    </g>
    </svg>
